<svg xmlns="http://www.w3.org/2000/svg" width="64px" height="64px" shape-rendering="geometricPrecision" text-rendering="geometricPrecision" image-rendering="optimizeQuality" fill-rule="evenodd" clip-rule="evenodd" viewBox="0 0 13546.66 13546.66"><path d="M6773.39 1575.6c2870.59 0 5197.67 2327.2 5197.67 5197.67 0 2870.59-2327.08 5197.79-5197.67 5197.79s-5197.67-2327.2-5197.67-5197.79c0-2870.47 2327.08-5197.67 5197.67-5197.67zm0-1575.6c1870.01 0 3563.7 758.25 4789.36 1983.91 1225.66 1225.66 1983.91 2919.22 1983.91 4789.48 0 1870.26-758.25 3563.83-1983.91 4789.37-1225.66 1225.66-2919.35 1983.91-4789.36 1983.91-1870.26 0-3563.82-758.25-4789.49-1983.91C758.24 10337.09-.01 8643.41-.01 6773.39c0-1870.01 758.25-3563.82 1983.91-4789.48C3209.57 758.37 4903.13 0 6773.39 0zm4319.98 2453.29C9987.89 1347.81 8460.43 663.93 6773.39 663.93c-1687.04 0-3214.62 684-4320.1 1789.36C1347.8 3558.77 663.92 5086.35 663.92 6773.39c0 1687.04 683.88 3214.5 1789.37 4319.98 1105.48 1105.49 2632.94 1789.37 4320.1 1789.37 1687.04 0 3214.5-683.88 4319.98-1789.37 1105.48-1105.36 1789.36-2632.82 1789.36-4319.98 0-1687.16-683.88-3214.62-1789.36-4320.1zM7616.11 6512.35l-643.98 520.61h1891.31v575.89H6410.76c-164.01 123.25-261.04 274.09-261.04 465.56 0 329.26 261.04 507.55 726.61 507.55 397.47 0 739.78-191.47 1013.87-588.82l754.19 507.56c-410.53 630.93-1151.54 945.65-1850.68 945.65-918.08 0-1602.7-438.1-1602.7-1164.71 0-233.46 82.63-480.09 246.52-671.56h-754.19v-575.77h1205.34l658.52-520.73H4683.34v-575.76h2439.62C7301.38 5773.8 7384 5623.09 7384 5444.67c0-287.27-261.04-493.15-658.51-493.15-384.3 0-712.2 219.06-945.66 588.82l-726.6-494.37c397.47-630.93 1041.45-945.66 1740.48-945.66 945.65 0 1562.18 493.15 1562.18 1164.71 0 246.51-82.62 493.15-219.05 671.44h726.6v575.89H7616.11z"/></svg>
